<svg xmlns="http://www.w3.org/2000/svg" xmlns:xlink="http://www.w3.org/1999/xlink" id="Layer_1" x="0px" y="0px" viewBox="0 0 960 225.63" style="enable-background:new 0 0 960 225.63;" xml:space="preserve"><style type="text/css">	.st0{fill:#010101;}</style><g>	<g>		<g>			<path class="st0" d="M291.48,140.35v-62c0-2.73,0.77-4.75,2.31-6.05c1.54-1.3,3.43-1.95,5.69-1.95c3.07,0,5.41,0.46,7.02,1.38    c1.6,0.92,3.4,3.13,5.38,6.61l10.55,18.45l10.55-18.45c1.98-3.48,3.77-5.69,5.38-6.61c1.6-0.92,3.94-1.38,7.02-1.38    c2.25,0,4.15,0.65,5.69,1.95c1.54,1.3,2.31,3.31,2.31,6.05v62c0,1.57-0.79,2.78-2.36,3.64c-1.57,0.85-3.45,1.28-5.64,1.28    c-2.19,0-4.07-0.43-5.64-1.28c-1.57-0.85-2.36-2.07-2.36-3.64v-38.43l-9.84,16.81c-1.16,1.98-2.94,2.97-5.33,2.97    c-2.32,0-4-0.99-5.02-2.97l-9.73-17.83v39.45c0,1.57-0.79,2.78-2.36,3.64c-1.57,0.85-3.45,1.28-5.64,1.28    c-2.19,0-4.07-0.43-5.64-1.28C292.26,143.14,291.48,141.93,291.48,140.35z"></path>			<path class="st0" d="M364.44,140.35V75.18c0-1.57,0.78-2.77,2.36-3.59c1.57-0.82,3.45-1.23,5.64-1.23c2.19,0,4.06,0.41,5.64,1.23    c1.57,0.82,2.36,2.02,2.36,3.59v65.17c0,1.57-0.79,2.78-2.36,3.64c-1.57,0.85-3.45,1.28-5.64,1.28c-2.19,0-4.07-0.43-5.64-1.28    C365.22,143.14,364.44,141.93,364.44,140.35z"></path>			<path class="st0" d="M387.9,132.98c0-1.91,0.7-3.83,2.1-5.74c1.4-1.91,3.02-2.87,4.87-2.87c1.03,0,2.17,0.41,3.43,1.24    c1.26,0.83,2.42,1.75,3.48,2.75c1.06,1.01,2.54,1.93,4.46,2.75c1.91,0.83,3.93,1.24,6.05,1.24c2.66,0,4.99-0.56,6.97-1.69    c1.98-1.13,2.97-2.82,2.97-5.07s-1.11-4.23-3.33-5.94c-2.22-1.71-4.92-3.26-8.1-4.66c-3.18-1.4-6.37-2.97-9.58-4.71    c-3.21-1.74-5.93-4.22-8.15-7.43c-2.22-3.21-3.33-7.04-3.33-11.48c0-7.24,2.56-12.66,7.69-16.24c5.12-3.59,11.31-5.38,18.55-5.38    c1.78,0,3.64,0.11,5.58,0.32c1.95,0.21,4.13,0.62,6.56,1.22c2.42,0.6,4.41,1.57,5.94,2.9s2.31,2.96,2.31,4.86    c0,1.8-0.56,3.68-1.69,5.62c-1.13,1.94-2.68,2.92-4.66,2.92c-0.82,0-2.56-0.65-5.23-1.95c-2.66-1.3-5.6-1.95-8.81-1.95    c-3.42,0-5.98,0.6-7.69,1.79c-1.71,1.2-2.56,2.65-2.56,4.35c0,1.57,0.8,3.01,2.41,4.3c1.6,1.3,3.6,2.41,5.99,3.33    c2.39,0.92,5,2.12,7.84,3.59c2.83,1.47,5.45,3.07,7.84,4.82c2.39,1.74,4.39,4.18,5.99,7.33c1.6,3.14,2.41,6.73,2.41,10.76    c0,7.05-2.36,12.53-7.07,16.45c-4.71,3.92-10.9,5.89-18.55,5.89c-6.63,0-12.4-1.37-17.32-4.1    C390.36,139.47,387.9,136.39,387.9,132.98z"></path>			<path class="st0" d="M446.11,140.35V75.28c0-1.57,0.68-2.78,2.05-3.64c1.37-0.85,3.01-1.28,4.92-1.28h36.48    c1.57,0,2.77,0.68,3.59,2.05c0.82,1.37,1.23,2.97,1.23,4.82c0,1.98-0.43,3.66-1.28,5.02c-0.85,1.37-2.03,2.05-3.53,2.05h-27.46    v17.32h15.37c1.5,0,2.68,0.61,3.54,1.84c0.85,1.23,1.28,2.7,1.28,4.41c0,1.57-0.41,2.97-1.23,4.2c-0.82,1.23-2.02,1.84-3.59,1.84    h-15.37v17.42h27.46c1.5,0,2.68,0.68,3.53,2.05c0.85,1.37,1.28,3.04,1.28,5.02c0,1.84-0.41,3.45-1.23,4.82    c-0.82,1.37-2.02,2.05-3.59,2.05h-36.48c-1.91,0-3.55-0.43-4.92-1.28C446.79,143.14,446.11,141.93,446.11,140.35z"></path>			<path class="st0" d="M501.34,140.35V75.18c0-1.3,0.46-2.42,1.38-3.38c0.92-0.96,2.1-1.43,3.54-1.43h21.21    c16.81,0,25.21,7.31,25.21,21.93c0,10.66-4.13,17.59-12.4,20.8l12.5,22.65c0.34,0.48,0.51,1.09,0.51,1.84    c0,1.98-1.08,3.86-3.23,5.64c-2.15,1.78-4.42,2.66-6.81,2.66c-2.39,0-4.1-0.99-5.12-2.97l-14.04-27.26h-6.76v24.7    c0,1.57-0.79,2.78-2.36,3.64c-1.57,0.85-3.45,1.28-5.64,1.28c-2.19,0-4.07-0.43-5.64-1.28    C502.12,143.14,501.34,141.93,501.34,140.35z M517.32,103.36h10.14c3.01,0,5.29-0.73,6.87-2.2c1.57-1.47,2.36-3.91,2.36-7.33    s-0.79-5.86-2.36-7.33c-1.57-1.47-3.86-2.2-6.87-2.2h-10.14V103.36z"></path>			<path class="st0" d="M561.18,140.35V75.18c0-1.57,0.78-2.77,2.36-3.59c1.57-0.82,3.45-1.23,5.64-1.23c2.19,0,4.06,0.41,5.64,1.23    c1.57,0.82,2.36,2.02,2.36,3.59v65.17c0,1.57-0.79,2.78-2.36,3.64c-1.57,0.85-3.45,1.28-5.64,1.28c-2.19,0-4.07-0.43-5.64-1.28    C561.97,143.14,561.18,141.93,561.18,140.35z"></path>			<path class="st0" d="M587.41,121.7V94.55c0-8.33,2.27-14.45,6.81-18.34c4.54-3.89,10.47-5.84,17.78-5.84    c7.51,0,13.68,1.81,18.5,5.43c4.82,3.62,7.22,8.61,7.22,14.96c0,2.94-0.61,4.94-1.84,5.99s-3.28,1.59-6.15,1.59    c-5.12,0-7.79-1.61-7.99-4.82c-0.2-6.15-3.25-9.22-9.12-9.22c-6.15,0-9.22,3.42-9.22,10.25v27.15c0,6.83,3.11,10.25,9.32,10.25    c1.91,0,3.5-0.31,4.76-0.92c1.26-0.62,2.17-1.55,2.72-2.82c0.55-1.26,0.9-2.3,1.08-3.13c0.17-0.82,0.32-1.95,0.46-3.38    c0.27-3.21,2.9-4.82,7.89-4.82c2.94,0,5.02,0.53,6.25,1.59s1.84,3.06,1.84,5.99c0,6.63-2.41,11.85-7.22,15.68    c-4.82,3.83-10.98,5.74-18.5,5.74c-7.31,0-13.24-1.95-17.78-5.84C589.68,136.15,587.41,130.04,587.41,121.7z"></path>			<path class="st0" d="M645,121.7V94.55c0-8.33,2.29-14.45,6.87-18.34c4.58-3.89,10.66-5.84,18.24-5.84    c7.65,0,13.76,1.95,18.34,5.84c4.58,3.89,6.87,10.01,6.87,18.34v27.15c0,8.34-2.29,14.45-6.87,18.34    c-4.58,3.89-10.69,5.84-18.34,5.84c-7.58,0-13.66-1.95-18.24-5.84C647.29,136.15,645,130.04,645,121.7z M660.99,121.7    c0,6.83,3.04,10.25,9.12,10.25c6.15,0,9.22-3.42,9.22-10.25V94.55c0-6.83-3.07-10.25-9.22-10.25c-6.08,0-9.12,3.42-9.12,10.25    V121.7z M663.35,57.56c0-1.71,0.68-2.9,2.05-3.59l14.35-6.66c0.48-0.2,0.96-0.31,1.44-0.31c1.3,0,2.42,0.63,3.38,1.9    c0.96,1.27,1.43,2.61,1.43,4.05c0,1.64-0.68,2.8-2.05,3.48l-14.35,6.66c-0.68,0.27-1.2,0.41-1.54,0.41c-1.3,0-2.41-0.63-3.33-1.9    C663.81,60.34,663.35,58.99,663.35,57.56z"></path>			<path class="st0" d="M705.56,140.35V75.18c0-1.3,0.46-2.42,1.38-3.38c0.92-0.96,2.1-1.43,3.54-1.43h21.21    c16.81,0,25.21,7.31,25.21,21.93c0,10.66-4.13,17.59-12.4,20.8l12.5,22.65c0.34,0.48,0.51,1.09,0.51,1.84    c0,1.98-1.08,3.86-3.23,5.64c-2.15,1.78-4.42,2.66-6.81,2.66c-2.39,0-4.1-0.99-5.12-2.97l-14.04-27.26h-6.76v24.7    c0,1.57-0.79,2.78-2.36,3.64c-1.57,0.85-3.45,1.28-5.64,1.28c-2.19,0-4.07-0.43-5.64-1.28    C706.35,143.14,705.56,141.93,705.56,140.35z M721.55,103.36h10.14c3.01,0,5.29-0.73,6.87-2.2c1.57-1.47,2.36-3.91,2.36-7.33    s-0.79-5.86-2.36-7.33c-1.57-1.47-3.86-2.2-6.87-2.2h-10.14V103.36z"></path>			<path class="st0" d="M765.41,140.46V75.18c0-1.3,0.65-2.42,1.95-3.38c1.3-0.96,2.97-1.43,5.02-1.43h18.14    c7.65,0,13.76,1.95,18.34,5.84c4.58,3.89,6.87,10.01,6.87,18.34v26.54c0,8.34-2.29,14.45-6.87,18.34    c-4.58,3.89-10.69,5.84-18.34,5.84h-18.14c-2.05,0-3.72-0.48-5.02-1.43C766.05,142.88,765.41,141.75,765.41,140.46z     M781.39,131.34h9.12c6.15,0,9.22-3.41,9.22-10.25V94.55c0-6.83-3.07-10.25-9.22-10.25h-9.12V131.34z"></path>			<path class="st0" d="M825.87,140.35V75.18c0-1.57,0.78-2.77,2.36-3.59c1.57-0.82,3.45-1.23,5.64-1.23c2.19,0,4.06,0.41,5.64,1.23    c1.57,0.82,2.36,2.02,2.36,3.59v65.17c0,1.57-0.79,2.78-2.36,3.64c-1.57,0.85-3.45,1.28-5.64,1.28c-2.19,0-4.07-0.43-5.64-1.28    C826.65,143.14,825.87,141.93,825.87,140.35z"></path>			<path class="st0" d="M847.79,138.71c0-0.21,0.07-0.58,0.2-1.13l19.06-62.51c0.55-1.71,1.79-3.02,3.74-3.94    c1.95-0.92,4.18-1.38,6.71-1.38c2.53,0,4.77,0.46,6.71,1.38c1.95,0.92,3.19,2.24,3.74,3.94l19.16,62.51    c0.14,0.55,0.21,0.92,0.21,1.13c0,1.78-1.11,3.31-3.33,4.61c-2.22,1.3-4.53,1.95-6.92,1.95c-2.94,0-4.68-0.99-5.23-2.97    l-3.48-12.81h-21.62l-3.48,12.81c-0.55,1.98-2.29,2.97-5.23,2.97c-2.39,0-4.7-0.65-6.92-1.95    C848.9,142.03,847.79,140.49,847.79,138.71z M870.03,117.19h14.96l-7.48-27.46L870.03,117.19z"></path>			<path class="st0" d="M909.69,132.98c0-1.91,0.7-3.83,2.1-5.74c1.4-1.91,3.02-2.87,4.87-2.87c1.03,0,2.17,0.41,3.43,1.24    c1.26,0.83,2.42,1.75,3.48,2.75c1.06,1.01,2.54,1.93,4.46,2.75c1.91,0.83,3.93,1.24,6.05,1.24c2.66,0,4.99-0.56,6.97-1.69    c1.98-1.13,2.97-2.82,2.97-5.07s-1.11-4.23-3.33-5.94c-2.22-1.71-4.92-3.26-8.1-4.66c-3.18-1.4-6.37-2.97-9.58-4.71    c-3.21-1.74-5.93-4.22-8.15-7.43c-2.22-3.21-3.33-7.04-3.33-11.48c0-7.24,2.56-12.66,7.69-16.24c5.12-3.59,11.31-5.38,18.55-5.38    c1.78,0,3.64,0.11,5.58,0.32c1.95,0.21,4.13,0.62,6.56,1.22c2.42,0.6,4.41,1.57,5.94,2.9c1.54,1.34,2.31,2.96,2.31,4.86    c0,1.8-0.56,3.68-1.69,5.62c-1.13,1.94-2.68,2.92-4.66,2.92c-0.82,0-2.56-0.65-5.23-1.95c-2.66-1.3-5.6-1.95-8.81-1.95    c-3.42,0-5.98,0.6-7.69,1.79c-1.71,1.2-2.56,2.65-2.56,4.35c0,1.57,0.8,3.01,2.41,4.3c1.6,1.3,3.6,2.41,5.99,3.33    c2.39,0.92,5,2.12,7.84,3.59c2.83,1.47,5.45,3.07,7.84,4.82c2.39,1.74,4.39,4.18,5.99,7.33c1.6,3.14,2.41,6.73,2.41,10.76    c0,7.05-2.36,12.53-7.07,16.45c-4.71,3.92-10.9,5.89-18.55,5.89c-6.63,0-12.4-1.37-17.32-4.1    C912.14,139.47,909.69,136.39,909.69,132.98z"></path>		</g>		<g>			<path class="st0" d="M287.97,219.31c0-0.65,0.23-1.29,0.7-1.9c0.47-0.61,0.99-0.92,1.56-0.92c0.37,0,0.84,0.26,1.41,0.77    c0.57,0.51,1.16,1.08,1.78,1.72c0.61,0.63,1.57,1.2,2.88,1.71c1.31,0.51,2.78,0.77,4.41,0.77c2.65,0,4.74-0.64,6.25-1.93    c1.51-1.29,2.27-3.18,2.27-5.67c0-2.25-0.69-4.07-2.08-5.48c-1.39-1.41-3.06-2.48-5.02-3.21c-1.96-0.73-3.93-1.52-5.91-2.36    c-1.98-0.84-3.67-2.12-5.05-3.86c-1.39-1.74-2.08-3.97-2.08-6.71c0-2.15,0.41-4.01,1.22-5.6c0.82-1.59,1.91-2.79,3.28-3.59    c1.37-0.8,2.79-1.39,4.26-1.77c1.47-0.37,3.04-0.56,4.72-0.56c2.53,0,4.95,0.37,7.26,1.1c2.31,0.73,3.46,1.75,3.46,3.05    c0,0.57-0.2,1.19-0.61,1.85s-0.94,0.98-1.59,0.98c-0.16,0-1.1-0.39-2.82-1.16c-1.71-0.78-3.61-1.16-5.7-1.16    c-2.49,0-4.5,0.51-6.03,1.53c-1.53,1.02-2.3,2.63-2.3,4.84c0,1.88,0.69,3.4,2.08,4.56c1.39,1.16,3.07,2.09,5.05,2.79    c1.98,0.69,3.95,1.49,5.91,2.39c1.96,0.9,3.63,2.34,5.02,4.32c1.39,1.98,2.08,4.5,2.08,7.56c0,4.21-1.22,7.38-3.68,9.53    c-2.45,2.14-5.7,3.21-9.74,3.21c-3.63,0-6.71-0.76-9.22-2.29S287.97,220.79,287.97,219.31z"></path>			<path class="st0" d="M317.74,223.47c0-0.08,0.04-0.25,0.12-0.49l12.54-40.72c0.36-1.19,1.4-1.79,3.12-1.79    c1.72,0,2.76,0.6,3.12,1.8l12.58,40.87c0,0.08,0.01,0.15,0.03,0.23c0.02,0.08,0.03,0.13,0.03,0.17c0,0.54-0.34,1.02-1.01,1.44    c-0.67,0.42-1.4,0.63-2.17,0.63c-0.98,0-1.59-0.39-1.84-1.16l-2.7-9.07h-16.21l-2.69,9.04c-0.24,0.79-0.86,1.19-1.87,1.19    c-0.72,0-1.41-0.2-2.08-0.61C318.07,224.59,317.74,224.08,317.74,223.47z M326.63,211.1h13.67l-6.81-23.08L326.63,211.1z"></path>			<path class="st0" d="M354.25,212.63v-30.01c0-0.57,0.25-1.01,0.77-1.32c0.51-0.31,1.11-0.46,1.81-0.46s1.3,0.15,1.81,0.46    c0.51,0.31,0.77,0.75,0.77,1.32v30.01c0,5.8,2.73,8.7,8.21,8.7c2.65,0,4.7-0.72,6.13-2.17c1.43-1.45,2.14-3.62,2.14-6.52v-30.01    c0-1.18,0.86-1.78,2.57-1.78c0.69,0,1.3,0.15,1.81,0.46c0.51,0.31,0.77,0.75,0.77,1.32v30.01c0,4.62-1.23,7.99-3.68,10.14    c-2.45,2.14-5.7,3.21-9.74,3.21c-4.04,0-7.28-1.07-9.71-3.21C355.46,220.62,354.25,217.24,354.25,212.63z M363.13,172.39    c0-0.61,0.26-1.06,0.8-1.35l7.17-3.8c0.24-0.08,0.45-0.12,0.61-0.12c0.49,0,0.9,0.21,1.23,0.64c0.33,0.43,0.49,0.91,0.49,1.44    c0,0.69-0.29,1.18-0.86,1.47l-6.92,3.55c-0.33,0.16-0.55,0.24-0.67,0.24c-0.49,0-0.92-0.21-1.29-0.64    C363.31,173.39,363.13,172.92,363.13,172.39z"></path>			<path class="st0" d="M389.53,223.84v-41.22c0-0.49,0.21-0.91,0.64-1.26c0.43-0.35,0.99-0.52,1.68-0.52h10.84    c4,0,7.21,1.07,9.62,3.21c2.41,2.14,3.61,5.52,3.61,10.14v18.07c0,4.62-1.2,7.99-3.61,10.14c-2.41,2.14-5.62,3.22-9.62,3.22    h-10.84c-0.69,0-1.26-0.17-1.68-0.52C389.74,224.75,389.53,224.33,389.53,223.84z M394.67,220.96h8.02    c2.57,0,4.56-0.73,5.97-2.18c1.41-1.45,2.11-3.62,2.11-6.52v-18.07c0-2.9-0.7-5.07-2.11-6.52c-1.41-1.45-3.4-2.17-5.97-2.17    h-8.02V220.96z"></path>			<path class="st0" d="M424.2,223.78v-41.1c0-0.57,0.23-1.02,0.7-1.35c0.47-0.33,1.01-0.49,1.62-0.49h21.81    c0.57,0,1.01,0.22,1.32,0.67c0.31,0.45,0.46,0.98,0.46,1.59c0,0.65-0.16,1.22-0.49,1.68c-0.33,0.47-0.76,0.7-1.29,0.7h-18.99    v15.56h9.56c0.53,0,0.96,0.21,1.29,0.64c0.33,0.43,0.49,0.95,0.49,1.56c0,0.53-0.15,1.01-0.46,1.44    c-0.31,0.43-0.75,0.64-1.32,0.64h-9.56v15.62h18.99c0.53,0,0.96,0.23,1.29,0.7c0.33,0.47,0.49,1.03,0.49,1.69    c0,0.61-0.15,1.14-0.46,1.59c-0.31,0.45-0.75,0.67-1.32,0.67h-21.81c-0.61,0-1.15-0.16-1.62-0.49    C424.43,224.8,424.2,224.35,424.2,223.78z"></path>		</g>	</g>	<g>		<g>			<path class="st0" d="M10.91,120.63C4.88,120.63,0,115.75,0,109.73V78.85c0-6.02,4.88-10.91,10.91-10.91h57.02V10.92    c0-6.02,4.88-10.91,10.91-10.91h67.93c6.02,0,10.91,4.88,10.91,10.91v57.02h57.02c6.02,0,10.91,4.88,10.91,10.91    s-4.88,10.91-10.91,10.91h-67.93c-6.02,0-10.91-4.88-10.91-10.91V21.83H89.74v57.02c0,6.02-4.88,10.91-10.91,10.91H21.81v19.97    C21.81,115.75,16.93,120.63,10.91,120.63z"></path>		</g>		<g>			<path class="st0" d="M146.77,225.61H78.84c-6.02,0-10.91-4.88-10.91-10.91v-57.02H10.91C4.88,157.69,0,152.8,0,146.78    s4.88-10.91,10.91-10.91h67.93c6.02,0,10.91,4.88,10.91,10.91v57.02h46.12v-57.02c0-6.02,4.88-10.91,10.91-10.91h57.02V115.9    c0-6.02,4.88-10.91,10.91-10.91c6.02,0,10.91,4.88,10.91,10.91v30.88c0,6.02-4.88,10.91-10.91,10.91h-57.02v57.02    C157.67,220.73,152.79,225.61,146.77,225.61z"></path>		</g>	</g></g></svg>